<?xml version="1.0" encoding="utf-8"?>
<!-- Generator: Adobe Illustrator 24.3.0, SVG Export Plug-In . SVG Version: 6.00 Build 0)  -->
<svg version="1.1" id="Layer_1" xmlns="http://www.w3.org/2000/svg" xmlns:xlink="http://www.w3.org/1999/xlink" x="0px" y="0px"
	 viewBox="0 0 28.35 28.35" style="enable-background:new 0 0 28.35 28.35;" xml:space="preserve">
<style type="text/css">
	.st0{fill:#931B38;}
</style>
<g>
	<g>
		<path class="st0" d="M12.32,15.49c0.4-1.1,0.8-2.2,1.21-3.3c0.69-1.85,0.23-1.46,2.22-1.52c0.39-0.01,0.59,0.14,0.73,0.51
			c0.53,1.47,1.09,2.93,1.76,4.38c0-1.09,0-2.18,0-3.26c0-1.63,0-1.63,1.63-1.63c0.75,0,1.51-0.06,2.26,0.11
			c0.91,0.2,1.52,0.72,1.78,1.64c0.2,0.7,0.25,1.41,0.14,2.13c-0.22,1.52-1.14,2.38-2.71,2.43c-1.41,0.05-2.83,0.01-4.24,0.02
			c-0.39,0-0.58-0.2-0.63-0.54c-0.1-0.62-0.46-0.84-1.06-0.75c-0.11,0.02-0.23,0.02-0.35,0c-0.63-0.09-1.05,0.09-1.16,0.78
			C13.83,16.86,13.6,17,13.23,17c-0.85-0.02-1.7-0.02-2.56,0c-0.43,0.01-0.59-0.17-0.58-0.59c0.01-1.72,0.01-3.45,0-5.17
			c0-0.38,0.13-0.57,0.54-0.57c1.82,0.02,1.55-0.21,1.56,1.46c0.01,1.11,0,2.23,0,3.34C12.24,15.48,12.28,15.48,12.32,15.49z
			 M20.33,13.81c0,0.33-0.02,0.66,0.01,0.98c0.02,0.27-0.13,0.64,0.26,0.74c0.4,0.1,0.82,0.08,1.12-0.27
			c0.49-0.54,0.42-2.4-0.09-2.91c-0.3-0.29-0.67-0.29-1.03-0.21c-0.37,0.08-0.24,0.43-0.26,0.68
			C20.32,13.15,20.34,13.48,20.33,13.81z M15.16,12.49c-0.18,0.58-0.31,1-0.44,1.42c-0.04,0.15-0.1,0.33,0.07,0.41
			c0.25,0.12,0.54,0.11,0.79,0.02c0.19-0.07,0.07-0.27,0.03-0.41C15.49,13.51,15.35,13.09,15.16,12.49z"/>
		<path class="st0" d="M4.26,13.82c0-0.83,0.02-1.66-0.01-2.5c-0.01-0.47,0.14-0.67,0.63-0.66c0.95,0.02,1.9,0,2.84,0.01
			c0.27,0,0.54,0.05,0.8,0.13c1.12,0.34,1.5,1.64,0.7,2.5c-0.23,0.25-0.33,0.36,0.03,0.59c0.57,0.36,0.79,0.92,0.68,1.6
			c-0.11,0.72-0.54,1.14-1.21,1.34C8.35,16.95,7.97,17,7.58,17c-0.83-0.01-1.66,0-2.5,0c-0.82,0-0.83,0-0.83-0.85
			C4.26,15.37,4.26,14.59,4.26,13.82C4.26,13.82,4.26,13.82,4.26,13.82z M6.84,15.56c0.19,0,0.31,0,0.43,0
			c0.32-0.01,0.59-0.11,0.59-0.49c0.01-0.41-0.27-0.52-0.62-0.53c-0.19,0-0.39,0.01-0.58,0c-0.43-0.03-0.52,0.21-0.51,0.58
			C6.18,15.69,6.6,15.53,6.84,15.56z M6.79,13.1c0.36-0.02,0.81,0.05,0.83-0.48c0.02-0.53-0.42-0.51-0.79-0.52
			c-0.35-0.01-0.66-0.01-0.67,0.49C6.15,13.07,6.4,13.14,6.79,13.1z"/>
	</g>
</g>
</svg>
