<?xml version="1.0" encoding="utf-8"?>
<!-- Generator: Adobe Illustrator 24.3.0, SVG Export Plug-In . SVG Version: 6.00 Build 0)  -->
<svg version="1.1" id="Layer_1" xmlns="http://www.w3.org/2000/svg" xmlns:xlink="http://www.w3.org/1999/xlink" x="0px" y="0px"
	 viewBox="0 0 28.35 28.35" style="enable-background:new 0 0 28.35 28.35;" xml:space="preserve">
<style type="text/css">
	.st0{fill:#E2192B;}
	.st1{fill:#58585A;}
</style>
<g>
	<path class="st0" d="M8.73,4.25c0.92,0,1.84,0,2.77,0c0.24,0,0.47,0.04,0.7,0.08c0.39,0.07,0.76,0.18,1.12,0.33
		c0.4,0.17,0.78,0.38,1.13,0.64c0.24,0.17,0.46,0.37,0.66,0.58c0.34,0.35,0.63,0.73,0.87,1.16c0.24,0.44,0.42,0.9,0.54,1.38
		c0.05,0.22,0.09,0.45,0.12,0.68c0.02,0.24,0.05,0.49,0.04,0.73c-0.01,0.24-0.03,0.48-0.06,0.71c-0.05,0.31-0.11,0.61-0.21,0.9
		c-0.13,0.39-0.29,0.76-0.51,1.11c-0.2,0.32-0.42,0.62-0.68,0.9c-0.25,0.27-0.52,0.5-0.82,0.72c-0.26,0.19-0.55,0.35-0.84,0.49
		c-0.39,0.18-0.79,0.31-1.21,0.39c-0.2,0.04-0.39,0.07-0.59,0.08c-0.05,0-0.11,0.03-0.14,0c-0.03-0.03-0.01-0.1-0.01-0.15
		c0-1.83,0-3.66,0-5.49c0-0.07-0.01-0.08-0.08-0.08c-1.86,0-3.72,0-5.58,0c-0.06,0-0.09-0.01-0.09-0.08c0-1.66,0-3.33,0-4.99
		c0-0.06,0.02-0.07,0.08-0.07C6.86,4.26,7.8,4.25,8.73,4.25C8.73,4.25,8.73,4.25,8.73,4.25z"/>
	<path class="st0" d="M5.85,15.41c0-1.78,0-3.56,0-5.34c0-0.06,0.01-0.07,0.07-0.07c1.67,0,3.34,0,5.01,0
		c0.05,0,0.07,0.01,0.07,0.07c0,2.9,0,5.8,0,8.7c0,0.66,0,1.32,0,1.98c0,0.06-0.02,0.07-0.07,0.07c-1.67,0-3.33,0-5,0
		c-0.06,0-0.08-0.01-0.08-0.07C5.85,18.97,5.85,17.19,5.85,15.41C5.85,15.41,5.85,15.41,5.85,15.41z"/>
	<path class="st0" d="M17.28,15.41c0-1.78,0-3.56,0-5.34c0-0.06,0.02-0.06,0.07-0.06c1.66,0,3.33,0,4.99,0
		c0.06,0,0.07,0.01,0.07,0.07c0,2.38,0,4.75,0,7.13c0,1.18,0,2.36,0,3.54c0,0.05,0,0.07-0.06,0.07c-1.66,0-3.33,0-4.99,0
		c-0.07,0-0.08-0.02-0.08-0.08C17.28,18.96,17.28,17.19,17.28,15.41z"/>
	<path class="st0" d="M13.89,4.25c0.04,0,0.09,0,0.13,0c2.77,0,5.54,0,8.3,0c0.07,0,0.09,0.02,0.09,0.09c0,1.66,0,3.33,0,4.99
		c0,0.06-0.02,0.07-0.07,0.07c-1.67,0-3.34,0-5.01,0c-0.06,0-0.07-0.01-0.07-0.07c-0.01-0.22-0.04-0.44-0.08-0.66
		c-0.06-0.35-0.15-0.69-0.27-1.02c-0.19-0.53-0.45-1.02-0.77-1.47c-0.22-0.31-0.46-0.59-0.74-0.85c-0.31-0.3-0.66-0.57-1.03-0.79
		C14.22,4.44,14.06,4.35,13.89,4.25z"/>
	<path class="st0" d="M16.68,12.4c0,0.19,0,0.38,0,0.57c0,2.59,0,5.18,0,7.77c0,0.06-0.02,0.07-0.08,0.07c-1.63,0-3.27,0-4.9,0
		c-0.1,0-0.1,0-0.1-0.1c0-1.64,0-3.28,0-4.92c0-0.06,0.01-0.07,0.07-0.08c0.19-0.01,0.38-0.03,0.57-0.06
		c0.28-0.04,0.56-0.11,0.83-0.19c0.31-0.09,0.61-0.22,0.9-0.36c0.4-0.2,0.77-0.44,1.12-0.73c0.19-0.16,0.37-0.32,0.54-0.5
		c0.34-0.37,0.64-0.76,0.89-1.21c0.05-0.09,0.1-0.19,0.15-0.28C16.67,12.4,16.67,12.4,16.68,12.4z"/>
	<path class="st1" d="M7.65,23.44c0-0.3,0.16-0.49,0.38-0.64c0.04-0.02,0.08-0.05,0.12-0.07c0.04-0.02,0.04-0.03,0.02-0.07
		C8.09,22.53,8.02,22.39,8,22.23c-0.04-0.32,0.11-0.58,0.42-0.69c0.24-0.08,0.48-0.07,0.7,0.06c0.27,0.16,0.34,0.49,0.15,0.75
		c-0.09,0.13-0.21,0.23-0.34,0.32c-0.03,0.02-0.04,0.03-0.01,0.07c0.07,0.09,0.14,0.18,0.21,0.27c0.02,0.03,0.04,0.04,0.06,0
		c0.05-0.09,0.09-0.19,0.12-0.3c0.01-0.04,0.03-0.05,0.07-0.04c0.12,0.03,0.23,0.06,0.35,0.08c0.05,0.01,0.06,0.03,0.05,0.08
		c-0.06,0.19-0.16,0.37-0.27,0.53c-0.03,0.04-0.03,0.06,0.02,0.09c0.08,0.04,0.17,0.07,0.25,0.08c0.03,0,0.05,0.01,0.05,0.04
		c0,0.15,0,0.31,0,0.46c0,0.04-0.02,0.05-0.05,0.05c-0.24-0.02-0.46-0.07-0.65-0.23c-0.04-0.03-0.06-0.01-0.09,0.01
		c-0.21,0.15-0.44,0.23-0.69,0.22c-0.3-0.02-0.64-0.24-0.68-0.58C7.66,23.49,7.66,23.46,7.65,23.44z M8.55,23.59
		c0.05,0,0.11-0.01,0.17-0.04c0.03-0.02,0.04-0.03,0.02-0.07c-0.09-0.12-0.19-0.25-0.27-0.37c-0.03-0.04-0.05-0.03-0.07,0
		c-0.05,0.06-0.08,0.12-0.09,0.2C8.27,23.45,8.39,23.59,8.55,23.59z M8.69,22.39c0.07-0.1,0.15-0.17,0.17-0.29
		c0.02-0.08-0.01-0.15-0.07-0.19c-0.06-0.04-0.11-0.04-0.17,0c-0.06,0.05-0.08,0.11-0.07,0.19C8.57,22.2,8.63,22.29,8.69,22.39z"/>
	<path class="st1" d="M14.65,22.79c0-0.4,0-0.79,0-1.19c0-0.05,0.01-0.06,0.06-0.06c0.33,0,0.66,0,0.99,0.01
		c0.25,0.01,0.48,0.09,0.62,0.31c0.19,0.3,0.15,0.76-0.26,0.95c-0.05,0.02-0.05,0.05-0.03,0.09c0.13,0.36,0.25,0.72,0.38,1.09
		c0.02,0.05,0.01,0.06-0.04,0.06c-0.17,0-0.34,0-0.52,0c-0.04,0-0.06-0.01-0.07-0.05c-0.09-0.32-0.18-0.63-0.27-0.95
		c-0.02-0.06-0.04-0.09-0.11-0.08c-0.12,0.01-0.12,0-0.12,0.12c0,0.29,0,0.59,0,0.88c0,0.06-0.01,0.09-0.08,0.08
		c-0.17-0.01-0.33,0-0.5,0c-0.05,0-0.06-0.02-0.06-0.06C14.65,23.59,14.65,23.19,14.65,22.79C14.65,22.79,14.65,22.79,14.65,22.79z
		 M15.29,22.28C15.29,22.28,15.29,22.28,15.29,22.28c0,0.08,0,0.16,0,0.23c0,0.02-0.01,0.05,0.03,0.05c0.11,0,0.23,0,0.34-0.05
		c0.1-0.04,0.15-0.13,0.14-0.27c-0.01-0.1-0.07-0.18-0.18-0.21c-0.1-0.03-0.19-0.03-0.29-0.03c-0.03,0-0.03,0.02-0.03,0.04
		C15.29,22.13,15.29,22.21,15.29,22.28z"/>
	<path class="st1" d="M18.42,22.79c0,0.27-0.03,0.53-0.14,0.78c-0.15,0.34-0.42,0.52-0.79,0.53c-0.2,0.01-0.39-0.03-0.56-0.15
		c-0.18-0.12-0.29-0.3-0.36-0.5c-0.14-0.45-0.14-0.91,0.02-1.35c0.11-0.31,0.32-0.52,0.66-0.58c0.3-0.05,0.59-0.01,0.82,0.21
		c0.14,0.13,0.22,0.3,0.27,0.48C18.4,22.4,18.42,22.6,18.42,22.79z M17.73,22.79c0-0.08,0-0.16,0-0.23c0-0.14-0.01-0.27-0.05-0.4
		c-0.04-0.12-0.12-0.19-0.22-0.19c-0.13,0-0.2,0.05-0.25,0.18c-0.04,0.1-0.05,0.21-0.05,0.32c-0.01,0.22-0.01,0.45,0,0.67
		c0.01,0.12,0.01,0.25,0.07,0.36c0.08,0.15,0.3,0.18,0.4,0.04c0.05-0.07,0.07-0.15,0.08-0.22C17.74,23.14,17.73,22.97,17.73,22.79z"
		/>
	<path class="st1" d="M14.37,23.44c0,0.2,0,0.39,0,0.59c0,0.04-0.01,0.05-0.06,0.06c-0.16,0.03-0.27-0.03-0.31-0.19
		c-0.01-0.04-0.03-0.03-0.06-0.01c-0.32,0.33-1.07,0.29-1.31-0.3c-0.11-0.28-0.14-0.57-0.12-0.87c0.01-0.22,0.04-0.44,0.12-0.65
		c0.12-0.3,0.32-0.51,0.65-0.56c0.25-0.04,0.5-0.02,0.73,0.12c0.22,0.13,0.31,0.34,0.35,0.58c0.01,0.06,0.01,0.13,0.01,0.19
		c0,0.03-0.01,0.04-0.04,0.04c-0.18,0-0.35,0-0.53,0c-0.04,0-0.05-0.02-0.05-0.05c0-0.09-0.01-0.17-0.03-0.25
		c-0.03-0.09-0.08-0.16-0.18-0.17c-0.1-0.01-0.18,0.02-0.24,0.11c-0.06,0.11-0.08,0.23-0.09,0.35c-0.02,0.29-0.03,0.58,0.01,0.87
		c0,0.04,0.01,0.07,0.02,0.1c0.04,0.14,0.12,0.21,0.22,0.22c0.13,0.01,0.23-0.05,0.29-0.18c0.09-0.19,0.07-0.21-0.13-0.21
		c-0.14,0-0.14,0-0.14-0.13c0-0.08,0-0.17,0-0.25c0-0.04,0.01-0.05,0.05-0.05c0.26,0,0.52,0,0.78,0c0.05,0,0.05,0.02,0.05,0.06
		C14.37,23.05,14.37,23.25,14.37,23.44z"/>
	<path class="st1" d="M18.61,22.48c0-0.29,0-0.59,0-0.88c0-0.04,0.01-0.06,0.05-0.06c0.18,0,0.35,0,0.53,0
		c0.05,0,0.06,0.02,0.06,0.06c0,0.57,0,1.13,0,1.7c0,0.04,0,0.09,0.02,0.13c0.04,0.12,0.11,0.19,0.24,0.19
		c0.13,0,0.2-0.05,0.24-0.18c0.02-0.07,0.03-0.14,0.03-0.21c0-0.55,0-1.09,0-1.64c0-0.05,0.02-0.06,0.06-0.06c0.14,0,0.28,0,0.42,0
		c0.04,0,0.06,0.01,0.06,0.05c0,0.58,0,1.16,0,1.74c0,0.24-0.08,0.46-0.29,0.61c-0.13,0.1-0.28,0.14-0.44,0.15
		c-0.2,0.01-0.39,0.01-0.58-0.08c-0.24-0.12-0.35-0.33-0.37-0.59c-0.02-0.25,0-0.51-0.01-0.76C18.61,22.6,18.61,22.54,18.61,22.48
		C18.61,22.48,18.61,22.48,18.61,22.48z"/>
	<path class="st1" d="M20.62,22.79c0-0.39,0-0.79,0-1.18c0-0.05,0.01-0.07,0.06-0.07c0.33,0,0.66,0,0.99,0.01
		c0.23,0.01,0.44,0.08,0.6,0.26c0.12,0.14,0.15,0.31,0.15,0.48c-0.01,0.17-0.04,0.33-0.15,0.46c-0.14,0.18-0.33,0.25-0.55,0.28
		c-0.14,0.02-0.27,0.02-0.41,0c-0.05,0-0.05,0.01-0.05,0.05c0,0.3,0,0.59,0,0.89c0,0.06-0.01,0.07-0.07,0.07c-0.17,0-0.34,0-0.51,0
		c-0.05,0-0.07-0.01-0.07-0.06C20.62,23.59,20.62,23.19,20.62,22.79z M21.26,22.3c0,0.08,0,0.17,0,0.25c0,0.03,0.01,0.05,0.04,0.05
		c0.08,0,0.16,0.01,0.24-0.02c0.11-0.04,0.19-0.1,0.21-0.21c0.02-0.11,0-0.21-0.09-0.28c-0.11-0.09-0.24-0.09-0.38-0.09
		c-0.03,0-0.02,0.03-0.02,0.05C21.26,22.13,21.26,22.21,21.26,22.3z"/>
	<path class="st1" d="M5.84,22.79c0-0.39,0-0.78,0-1.17c0-0.06,0.02-0.08,0.08-0.08c0.33,0,0.65,0,0.98,0.01
		c0.19,0.01,0.37,0.06,0.53,0.19c0.13,0.11,0.2,0.25,0.21,0.42c0.02,0.18,0,0.36-0.1,0.52C7.41,22.91,7.19,23,6.95,23.03
		c-0.14,0.02-0.27,0.02-0.41,0.01c-0.05,0-0.06,0-0.06,0.05c0,0.3,0,0.6,0,0.89c0,0.06-0.02,0.07-0.07,0.07c-0.17,0-0.33,0-0.5,0
		c-0.06,0-0.07-0.02-0.07-0.08C5.84,23.58,5.84,23.19,5.84,22.79C5.84,22.79,5.84,22.79,5.84,22.79z M6.48,22.29
		c0,0.09,0,0.17,0,0.26c0,0.02-0.01,0.05,0.03,0.05c0.09,0,0.18,0.01,0.27-0.02c0.12-0.04,0.2-0.13,0.2-0.25
		c0-0.15-0.06-0.24-0.18-0.3c-0.09-0.04-0.19-0.04-0.28-0.04c-0.03,0-0.03,0.02-0.03,0.04C6.48,22.12,6.48,22.2,6.48,22.29z"/>
	<path class="st1" d="M11.01,23.04c0,0.32,0,0.63,0,0.95c0,0.05-0.01,0.06-0.06,0.06c-0.17,0-0.34,0-0.51,0
		c-0.05,0-0.07-0.02-0.07-0.07c0-0.62,0-1.24,0-1.86c0-0.1,0.01-0.08-0.09-0.09c-0.14,0-0.28,0-0.42,0c-0.04,0-0.06-0.01-0.06-0.06
		c0-0.13,0-0.25,0-0.38c0-0.04,0-0.06,0.05-0.05c0.56,0,1.11,0,1.67,0c0.04,0,0.05,0.01,0.05,0.05c0,0.13,0,0.26,0,0.4
		c0,0.04-0.01,0.05-0.05,0.05c-0.15,0-0.29,0-0.44,0c-0.06,0-0.07,0.02-0.07,0.08C11.01,22.42,11.01,22.73,11.01,23.04z"/>
</g>
</svg>
