<?xml version="1.0" encoding="utf-8"?>
<!-- Generator: Adobe Illustrator 24.3.0, SVG Export Plug-In . SVG Version: 6.00 Build 0)  -->
<svg version="1.1" id="Layer_1" xmlns="http://www.w3.org/2000/svg" xmlns:xlink="http://www.w3.org/1999/xlink" x="0px" y="0px"
	 viewBox="0 0 28.35 28.35" style="enable-background:new 0 0 28.35 28.35;" xml:space="preserve">
<g>
	<path d="M23.81,14.13c0.03,2.85-0.99,5.28-3.01,7.28c-3.37,3.34-8.86,3.59-12.54,0.61C3.21,17.93,3.3,10.09,8.46,6.18
		c4.7-3.56,11.44-2.03,14.2,3.23C23.46,10.94,23.81,12.36,23.81,14.13z M14.44,20.35c0.96,0,1.74,0,2.52,0
		c0.57,0,0.61-0.05,0.61-0.62c0-1.16,0-2.31,0-3.47c0-0.62,0.04-0.65,0.67-0.65c0.33,0,0.66,0,0.98,0c0.27,0,0.5-0.02,0.49-0.39
		c0-0.35-0.23-0.35-0.47-0.35c-0.61,0-1.22,0.02-1.83-0.01c-0.45-0.02-0.6,0.13-0.6,0.59c0.02,1.2,0.01,2.41,0.01,3.61
		c0,0.3-0.05,0.51-0.43,0.51c-1.45-0.01-2.91,0.02-4.36-0.01c-1.51-0.04-2.73-1.28-2.83-2.8c-0.1-1.56,0.95-2.91,2.47-3.15
		c0.9-0.14,1.81-0.05,2.71-0.06c1.18-0.01,2.09-0.51,2.69-1.5c0.66-1.09,0.68-2.22,0.03-3.33c-0.69-1.18-1.94-1.75-3.27-1.5
		c-1.11,0.21-2.17,1.27-2.39,2.44c-0.04,0.22-0.19,0.52,0.21,0.6c0.34,0.07,0.49-0.11,0.53-0.43c0-0.03,0.01-0.06,0.02-0.09
		c0.31-1.24,1.45-1.96,2.77-1.73c0.91,0.16,1.95,1,1.8,2.78c-0.09,1.02-1.1,1.94-2.23,1.95c-0.7,0.01-1.41,0.01-2.11,0
		c-0.54-0.01-1.06,0.09-1.56,0.26c-1.64,0.56-2.6,2.25-2.37,4.17c0.19,1.6,1.59,2.96,3.21,3.13C12.68,20.4,13.65,20.32,14.44,20.35z
		"/>
</g>
</svg>
